<svg version="1.1" id="Layer_1" xmlns="http://www.w3.org/2000/svg" xmlns:xlink="http://www.w3.org/1999/xlink" x="0px" y="0px"
	 width="100%" viewBox="0 0 563 225" enable-background="new 0 0 563 225" xml:space="preserve">
<path fill="#000000" opacity="1.000000" stroke="none" 
	d="
M524.000000,226.000000 
	C349.333344,226.000000 175.166672,226.000000 1.000000,226.000000 
	C1.000000,151.000000 1.000000,76.000000 1.000000,1.000000 
	C188.666672,1.000000 376.333344,1.000000 564.000000,1.000000 
	C564.000000,76.000000 564.000000,151.000000 564.000000,226.000000 
	C550.833313,226.000000 537.666687,226.000000 524.000000,226.000000 
M26.516249,193.022919 
	C26.516249,193.022919 26.028841,193.042130 25.154896,193.027618 
	C23.338264,193.042084 21.286606,192.530121 19.766521,193.208786 
	C18.001724,193.996689 15.719092,195.675232 15.472508,197.250687 
	C15.213174,198.907608 17.364374,202.570526 17.997549,202.468643 
	C21.556536,201.896011 25.000248,200.517624 28.409870,199.221054 
	C28.827431,199.062286 28.806162,197.749481 29.612885,197.314957 
	C33.776356,203.731445 37.791897,203.888657 41.945786,196.609451 
	C41.945786,199.679520 41.945786,201.587250 41.945786,203.599304 
	C47.217426,205.537949 46.779510,200.472397 48.415302,197.892487 
	C48.655029,198.208893 48.793259,198.559875 49.047661,198.700058 
	C50.835701,199.685410 52.647686,200.627304 54.452019,201.583099 
	C54.928009,200.122910 56.031654,198.525513 55.748734,197.231201 
	C55.167801,194.573547 53.270073,194.308868 50.434151,194.558151 
	C43.671219,195.152618 36.833759,194.899185 29.994726,194.291595 
	C28.997768,193.873169 28.000811,193.454758 26.516249,193.022919 
M304.106445,113.423035 
	C301.668274,113.500313 299.230072,113.577599 296.292023,112.880867 
	C296.249908,112.576622 296.207825,112.272385 296.799103,111.575584 
	C300.066010,106.735649 303.332916,101.895714 307.122681,96.281174 
	C298.834015,96.281174 292.096863,96.281174 285.221558,96.281174 
	C285.221558,98.129356 285.221558,99.733994 285.221558,101.535706 
	C288.146362,101.690514 290.848572,101.833542 294.136566,102.007576 
	C292.676788,104.235100 291.558960,105.821732 290.564911,107.482468 
	C288.483612,110.959686 286.467560,114.475945 284.411163,118.546486 
	C292.122253,118.846909 299.957123,120.658875 307.418945,117.376350 
	C308.575439,117.738976 309.925262,118.456375 311.312744,118.538574 
	C314.619934,118.734520 317.953156,118.489822 321.260437,118.684868 
	C325.021057,118.906631 325.463715,117.263405 324.263580,114.228767 
	C322.207397,114.087990 320.323151,113.958992 317.770905,113.784256 
	C320.369019,109.609573 322.630432,105.975937 325.517059,101.337669 
	C319.899658,101.337669 315.788940,101.471115 311.691071,101.298958 
	C307.835419,101.136993 308.167175,103.115196 308.983154,105.597816 
	C310.706665,105.906647 312.254272,106.183960 314.535828,106.592781 
	C312.016724,110.422493 309.847656,113.720016 307.517273,117.262833 
	C306.306732,115.603828 305.631744,114.678764 304.106445,113.423035 
M254.214600,113.104286 
	C257.380066,107.709335 260.545502,102.314377 264.014374,96.402313 
	C256.286896,96.402313 249.456146,96.402313 242.367111,96.402313 
	C242.511063,98.389748 242.625702,99.972359 242.762650,101.863037 
	C245.775681,101.863037 248.358566,101.863037 251.647537,101.863037 
	C247.905273,107.611748 244.516037,112.818146 240.670212,118.725945 
	C249.253235,118.725945 256.290802,118.725945 263.735535,118.725945 
	C263.596771,116.814598 263.483948,115.260765 263.346710,113.370941 
	C260.286316,113.370941 257.653900,113.370941 254.214600,113.104286 
M280.279938,114.053581 
	C278.889526,113.947868 277.499115,113.842148 275.457672,113.686935 
	C278.018494,109.445496 280.173187,105.876709 282.943512,101.288239 
	C277.602631,101.288239 273.508972,101.449631 269.434082,101.242058 
	C265.495819,101.041443 265.541321,102.945938 266.352692,105.604317 
	C268.182343,105.963463 269.691681,106.259743 271.723480,106.658569 
	C269.310150,110.705452 267.261322,114.141136 264.774414,118.311432 
	C271.220215,118.311432 276.544037,118.311432 282.609009,118.311432 
	C281.972107,116.587166 281.515900,115.352135 280.279938,114.053581 
M58.392513,200.159805 
	C63.783077,201.706589 64.499237,201.064163 63.180580,195.262360 
	C62.287113,196.493896 61.588303,197.457108 60.774345,198.579056 
	C60.059082,197.255463 59.583790,196.375946 59.108501,195.496429 
	C58.831806,195.565491 58.555115,195.634537 58.278423,195.703583 
	C58.218716,196.938538 58.159004,198.173477 58.392513,200.159805 
z"/>
<path fill="#EBEBEB" opacity="1.000000" stroke="none" 
	d="
M254.618042,113.237610 
	C257.653900,113.370941 260.286316,113.370941 263.346710,113.370941 
	C263.483948,115.260765 263.596771,116.814598 263.735535,118.725945 
	C256.290802,118.725945 249.253235,118.725945 240.670212,118.725945 
	C244.516037,112.818146 247.905273,107.611748 251.647537,101.863037 
	C248.358566,101.863037 245.775681,101.863037 242.762650,101.863037 
	C242.625702,99.972359 242.511063,98.389748 242.367111,96.402313 
	C249.456146,96.402313 256.286896,96.402313 264.014374,96.402313 
	C260.545502,102.314377 257.380066,107.709335 254.618042,113.237610 
z"/>
<path fill="#EBEBEB" opacity="1.000000" stroke="none" 
	d="
M284.424713,117.976166 
	C286.467560,114.475945 288.483612,110.959686 290.564911,107.482468 
	C291.558960,105.821732 292.676788,104.235100 294.136566,102.007576 
	C290.848572,101.833542 288.146362,101.690514 285.221558,101.535706 
	C285.221558,99.733994 285.221558,98.129356 285.221558,96.281174 
	C292.096863,96.281174 298.834015,96.281174 307.122681,96.281174 
	C303.332916,101.895714 300.066010,106.735649 296.276642,111.860031 
	C295.601044,112.528709 295.447906,112.912933 295.294769,113.297165 
	C295.793823,113.416405 296.292847,113.535645 296.791901,113.654884 
	C299.230072,113.577599 301.668274,113.500313 304.547363,113.971100 
	C305.362915,117.492401 303.742767,118.103348 301.159973,118.045151 
	C295.583862,117.919518 290.003387,117.987442 284.424713,117.976166 
z"/>
<path fill="#E1E1E1" opacity="1.000000" stroke="none" 
	d="
M284.417938,118.261330 
	C290.003387,117.987442 295.583862,117.919518 301.159973,118.045151 
	C303.742767,118.103348 305.362915,117.492401 304.972534,114.136429 
	C305.631744,114.678764 306.306732,115.603828 307.517273,117.262833 
	C309.847656,113.720016 312.016724,110.422493 314.535828,106.592781 
	C312.254272,106.183960 310.706665,105.906647 308.983154,105.597816 
	C308.167175,103.115196 307.835419,101.136993 311.691071,101.298958 
	C315.788940,101.471115 319.899658,101.337669 325.517059,101.337669 
	C322.630432,105.975937 320.369019,109.609573 317.770905,113.784256 
	C320.323151,113.958992 322.207397,114.087990 324.263580,114.228767 
	C325.463715,117.263405 325.021057,118.906631 321.260437,118.684868 
	C317.953156,118.489822 314.619934,118.734520 311.312744,118.538574 
	C309.925262,118.456375 308.575439,117.738976 307.418945,117.376350 
	C299.957123,120.658875 292.122253,118.846909 284.417938,118.261330 
z"/>
<path fill="#E1E1E1" opacity="1.000000" stroke="none" 
	d="
M280.669800,114.085342 
	C281.515900,115.352135 281.972107,116.587166 282.609009,118.311432 
	C276.544037,118.311432 271.220215,118.311432 264.774414,118.311432 
	C267.261322,114.141136 269.310150,110.705452 271.723480,106.658569 
	C269.691681,106.259743 268.182343,105.963463 266.352692,105.604317 
	C265.541321,102.945938 265.495819,101.041443 269.434082,101.242058 
	C273.508972,101.449631 277.602631,101.288239 282.943512,101.288239 
	C280.173187,105.876709 278.018494,109.445496 275.457672,113.686935 
	C277.499115,113.842148 278.889526,113.947868 280.669800,114.085342 
z"/>
<path fill="#181818" opacity="1.000000" stroke="none" 
	d="
M30.026398,194.988220 
	C36.833759,194.899185 43.671219,195.152618 50.434151,194.558151 
	C53.270073,194.308868 55.167801,194.573547 55.748734,197.231201 
	C56.031654,198.525513 54.928009,200.122910 54.452019,201.583099 
	C52.647686,200.627304 50.835701,199.685410 49.047661,198.700058 
	C48.793259,198.559875 48.655029,198.208893 48.415302,197.892487 
	C46.779510,200.472397 47.217426,205.537949 41.945786,203.599304 
	C41.945786,201.587250 41.945786,199.679520 41.945786,196.609451 
	C37.791897,203.888657 33.776356,203.731445 29.117184,196.894623 
	C28.081778,195.650345 27.542072,194.826385 27.321434,194.033493 
	C28.435801,194.372437 29.231098,194.680328 30.026398,194.988220 
z"/>
<path fill="#121212" opacity="1.000000" stroke="none" 
	d="
M27.002365,194.002441 
	C27.542072,194.826385 28.081778,195.650345 28.804871,196.722900 
	C28.806162,197.749481 28.827431,199.062286 28.409870,199.221054 
	C25.000248,200.517624 21.556536,201.896011 17.997549,202.468643 
	C17.364374,202.570526 15.213174,198.907608 15.472508,197.250687 
	C15.719092,195.675232 18.001724,193.996689 19.766521,193.208786 
	C21.286606,192.530121 23.338264,193.042084 25.703941,193.238586 
	C26.449038,193.703033 26.697292,193.885483 26.998840,193.998474 
	C26.999933,194.000000 27.002365,194.002441 27.002365,194.002441 
z"/>
<path fill="#181818" opacity="1.000000" stroke="none" 
	d="
M58.245903,199.784119 
	C58.159004,198.173477 58.218716,196.938538 58.278423,195.703583 
	C58.555115,195.634537 58.831806,195.565491 59.108501,195.496429 
	C59.583790,196.375946 60.059082,197.255463 60.774345,198.579056 
	C61.588303,197.457108 62.287113,196.493896 63.180580,195.262360 
	C64.499237,201.064163 63.783077,201.706589 58.245903,199.784119 
z"/>
<path fill="#121212" opacity="1.000000" stroke="none" 
	d="
M30.010563,194.639908 
	C29.231098,194.680328 28.435801,194.372437 27.321434,194.033493 
	C27.002365,194.002441 26.999933,194.000000 26.999012,193.758331 
	C26.998091,193.516663 27.003853,193.036331 27.003853,193.036331 
	C28.000811,193.454758 28.997768,193.873169 30.010563,194.639908 
z"/>
<path fill="#E1E1E1" opacity="1.000000" stroke="none" 
	d="
M296.541962,113.267876 
	C296.292847,113.535645 295.793823,113.416405 295.294769,113.297165 
	C295.447906,112.912933 295.601044,112.528709 295.959961,112.056320 
	C296.207825,112.272385 296.249908,112.576622 296.541962,113.267876 
z"/>
<path fill="#181818" opacity="1.000000" stroke="none" 
	d="
M26.760052,193.029633 
	C27.003853,193.036331 26.998091,193.516663 26.997921,193.756805 
	C26.697292,193.885483 26.449038,193.703033 26.140913,193.245850 
	C26.028841,193.042130 26.516249,193.022919 26.760052,193.029633 
z"/>
</svg>